<svg xmlns="http://www.w3.org/2000/svg" viewBox="0 0 337.41 213.04"><defs><style>.cls-1{fill:#fff;}</style></defs><title>logo_blc</title><g id="Calque_2" data-name="Calque 2"><g id="Calque_1-2" data-name="Calque 1"><path class="cls-1" d="M174.85,213a21.66,21.66,0,0,1-8.1-1.58c-.36-.15-.73-.3-1.09-.47s-.85-.4-1.26-.61l1.32-2.55-.48-.25,2.32-4.43.93.46.79.33c3.42,1.36,10.94-6.6,15.43-11.35,1.81-1.92,3.53-3.74,5-5.06a229.85,229.85,0,0,1,59.09-39.34c25.47-11.54,51.81-17.19,78.29-16.74l1.76,0,8.56,25.24-3.67-.18a195.77,195.77,0,0,0-81.87,13.75,227,227,0,0,0-61.51,36.79A24.28,24.28,0,0,1,174.85,213Zm-.46-5a19.38,19.38,0,0,0,12.78-4.79A232.7,232.7,0,0,1,250,165.63a201.15,201.15,0,0,1,80.3-14.23l-5.08-15h-1c-24.81,0-49.48,5.49-73.4,16.33a225.18,225.18,0,0,0-57.8,38.48c-1.32,1.2-3,2.94-4.72,4.79C183.9,200.73,179.06,205.85,174.39,208Z"/><path class="cls-1" d="M169.14,207.42l-4.1-2.85c19.71-28.4,43.09-51.25,69.49-67.91a192.21,192.21,0,0,1,68.75-27.07l2.07-.37,9,24.49-4.69,1.73-7.59-20.55a187.49,187.49,0,0,0-64.91,26C211.37,157.19,188.47,179.58,169.14,207.42Z"/><path class="cls-1" d="M171.59,200.63l-4.46-2.26c13.13-26,28.93-47.92,47-65.25s37.94-30.3,59.39-38.79l2.38-.94,8.6,23.29-4.69,1.73L273,99.94c-20,8.26-38.58,20.63-55.4,36.78C199.93,153.66,184.46,175.16,171.59,200.63Z"/><path class="cls-1" d="M162.56,213a24.28,24.28,0,0,1-15.51-6,227,227,0,0,0-61.51-36.79A195.93,195.93,0,0,0,3.67,156.54L0,156.72l8.56-25.24,1.76,0c26.48-.43,52.82,5.2,78.29,16.74a230.07,230.07,0,0,1,59.1,39.34c1.46,1.32,3.18,3.14,5,5.06,4.49,4.75,12,12.71,15.42,11.35.27-.1.53-.21.8-.33l.93-.46,2.32,4.43-.48.25,1.32,2.55c-.41.21-.83.42-1.26.61s-.73.32-1.09.47A21.66,21.66,0,0,1,162.56,213ZM13.09,151.31a201.61,201.61,0,0,1,74.29,14.32,232.7,232.7,0,0,1,62.86,37.6A19.18,19.18,0,0,0,163,208c-4.67-2.17-9.51-7.29-14-12-1.75-1.85-3.4-3.59-4.72-4.79a225.18,225.18,0,0,0-57.8-38.48C62.64,141.91,38,136.42,13.15,136.42h-1l-5.08,15Q10.09,151.31,13.09,151.31Z"/><path class="cls-1" d="M168.27,207.42c-19.33-27.84-42.23-50.23-68.06-66.53a187.49,187.49,0,0,0-64.91-26l-7.59,20.55L23,133.71l9-24.49,2.07.37a192.21,192.21,0,0,1,68.75,27.07c26.4,16.66,49.78,39.51,69.49,67.91Z"/><path class="cls-1" d="M166.13,200.63c-8.71-17.24-23.81-42.32-46.3-63.91C103,120.57,84.38,108.2,64.43,99.94l-6.82,18.47-4.69-1.73,8.6-23.29,2.38.94c21.45,8.49,41.43,21.54,59.39,38.79,23,22.07,38.42,47.67,47.3,65.25Z"/><path class="cls-1" d="M194.05,93a37.79,37.79,0,1,0-50.42.41c6,6,5.45,18.8,5.31,18.94a2.24,2.24,0,0,0,.69,1.77,2.49,2.49,0,0,0,1.63.68H186a2.27,2.27,0,0,0,1.64-.68,2.58,2.58,0,0,0,.68-1.77c0-.14-.68-13,5.31-18.94Zm-3.54-3.14c-.14.14-.41.41-.41.55-5.31,5.72-6.27,15.13-6.4,19.62H153.58c-.14-4.49-1.09-14.31-6.82-20.17a33.19,33.19,0,1,1,43.75,0Z"/><path class="cls-1" d="M184.63,123.07H152.56a1.78,1.78,0,0,1,0-3.56h32.07a1.78,1.78,0,1,1,0,3.56Z"/><path class="cls-1" d="M179.73,130.86H157.46a1.78,1.78,0,1,1,0-3.56h22.27a1.78,1.78,0,0,1,0,3.56Z"/><path class="cls-1" d="M176.17,138.66H161a1.78,1.78,0,1,1,0-3.56h15.15a1.78,1.78,0,1,1,0,3.56Z"/><path class="cls-1" d="M220.53,0l0,.09c1.91,7.12,5.59,12.76,10.23,15.66h0c-4.69,2.85-8.4,8.55-10.25,15.75h0c-1.89-7.12-5.57-12.78-10.19-15.71l-.06,0h0c4.66-2.9,8.36-8.58,10.25-15.75Z"/><path class="cls-1" d="M114.53,74.15v0c1.16,4.34,3.41,7.78,6.24,9.55h0c-2.86,1.74-5.13,5.21-6.25,9.6h0c-1.16-4.34-3.4-7.79-6.22-9.58l0,0h0c2.84-1.77,5.09-5.23,6.25-9.6Z"/><path class="cls-1" d="M239.53,30.15v.05c1.16,4.34,3.41,7.78,6.24,9.55h0c-2.86,1.74-5.13,5.21-6.25,9.6h0c-1.16-4.34-3.4-7.79-6.22-9.58l0,0h0c2.84-1.77,5.09-5.23,6.25-9.6Z"/><path class="cls-1" d="M127.53,94.76v0a8.32,8.32,0,0,0,3.25,5h0a8,8,0,0,0-3.25,5h0a8.34,8.34,0,0,0-3.24-5h0a8.29,8.29,0,0,0,3.25-5Z"/><path class="cls-1" d="M220.53,54.76v0a8.32,8.32,0,0,0,3.25,5h0a8,8,0,0,0-3.25,5h0a8.34,8.34,0,0,0-3.24-5h0a8.29,8.29,0,0,0,3.25-5Z"/></g></g></svg>